<svg width="72" height="72" viewBox="0 0 72 72" fill="none" xmlns="http://www.w3.org/2000/svg">
<g clip-path="url(#clip0_3_241)">
<path d="M36 72C55.8823 72 72 55.8823 72 36C72 16.1177 55.8823 0 36 0C16.1177 0 0 16.1177 0 36C0 55.8823 16.1177 72 36 72Z" fill="url(#paint0_linear_3_241)"/>
<path d="M44.6331 16C45.4528 16.0011 46.2387 16.3272 46.8183 16.9068C47.3979 17.4864 47.724 18.2723 47.7251 19.092V26.662C52.9551 26.948 57.1181 31.027 57.1181 36C57.1181 40.973 52.9561 45.052 47.7251 45.338V52.908C47.7243 53.7278 47.3983 54.5138 46.8186 55.0935C46.2389 55.6732 45.4529 55.9992 44.6331 56H27.0991C26.2793 55.9992 25.4933 55.6732 24.9136 55.0935C24.3339 54.5138 24.0079 53.7278 24.0071 52.908V45.668C24.0071 45.5123 24.0689 45.363 24.179 45.2529C24.2891 45.1428 24.4384 45.081 24.5941 45.081C24.7498 45.081 24.8991 45.1428 25.0092 45.2529C25.1193 45.363 25.1811 45.5123 25.1811 45.668V49.19H46.5511V45.338C45.5658 45.2857 44.5929 45.0944 43.6611 44.77L39.2781 47.161C38.8121 47.415 38.2651 46.941 38.4451 46.445L39.7531 42.849H33.0481C32.8925 42.8484 32.7435 42.7866 32.6331 42.677L27.9361 37.981C27.8266 37.8706 27.7648 37.7215 27.7641 37.566V24.728C27.7641 24.404 28.0271 24.141 28.3511 24.141H43.3811C43.7051 24.141 43.9681 24.404 43.9681 24.728V27.13C44.7871 26.872 45.6531 26.711 46.5511 26.662V22.184H25.1801V42.888C25.1801 42.9651 25.1649 43.0414 25.1354 43.1126C25.1059 43.1839 25.0627 43.2486 25.0082 43.3031C24.9537 43.3576 24.889 43.4008 24.8177 43.4303C24.7465 43.4598 24.6702 43.475 24.5931 43.475C24.516 43.475 24.4397 43.4598 24.3685 43.4303C24.2972 43.4008 24.2325 43.3576 24.178 43.3031C24.1235 43.2486 24.0803 43.1839 24.0508 43.1126C24.0213 43.0414 24.0061 42.9651 24.0061 42.888V19.092C24.0072 18.2721 24.3334 17.4861 24.9133 16.9064C25.4931 16.3268 26.2792 16.0008 27.0991 16H44.6331ZM46.5511 50.364H25.1801V52.908C25.1806 53.4165 25.3829 53.9041 25.7425 54.2636C26.102 54.6232 26.5896 54.8255 27.0981 54.826H44.6321C45.1406 54.8255 45.6282 54.6232 45.9877 54.2636C46.3473 53.9041 46.5496 53.4165 46.5501 52.908L46.5511 50.364ZM37.1181 51.069C37.4431 51.069 37.7051 51.331 37.7051 51.656V53.534C37.7051 53.6111 37.6899 53.6874 37.6604 53.7586C37.6309 53.8299 37.5877 53.8946 37.5332 53.9491C37.4787 54.0036 37.414 54.0468 37.3427 54.0763C37.2715 54.1058 37.1952 54.121 37.1181 54.121H34.6131C34.536 54.121 34.4597 54.1058 34.3885 54.0763C34.3173 54.0468 34.2525 54.0036 34.198 53.9491C34.1435 53.8946 34.1003 53.8299 34.0708 53.7586C34.0413 53.6874 34.0261 53.6111 34.0261 53.534V51.656C34.0261 51.331 34.2891 51.069 34.6131 51.069H37.1181ZM36.5311 52.243H35.2011V52.947H36.5311V52.243ZM47.1381 27.82C42.2821 27.82 38.3321 31.49 38.3321 36C38.3321 38.217 39.2721 40.293 40.9791 41.846C41.1561 42.006 41.2181 42.256 41.1361 42.481L40.0801 45.386L43.3311 43.613C43.4055 43.5723 43.4878 43.5482 43.5724 43.5423C43.657 43.5364 43.7418 43.5489 43.8211 43.579C44.8812 43.9788 46.0051 44.1824 47.1381 44.18C51.9941 44.18 55.9441 40.51 55.9441 36C55.9441 31.49 51.9941 27.82 47.1381 27.82ZM47.1381 29.15C47.4621 29.15 47.7251 29.414 47.7251 29.738V31.029H47.7651C48.4187 31.0301 49.0452 31.2902 49.5073 31.7525C49.9694 32.2148 50.2293 32.8414 50.2301 33.495V34.121C50.2301 34.2767 50.1683 34.426 50.0582 34.5361C49.9481 34.6462 49.7988 34.708 49.6431 34.708C49.4874 34.708 49.3381 34.6462 49.228 34.5361C49.1179 34.426 49.0561 34.2767 49.0561 34.121V33.495C49.0561 32.783 48.4761 32.204 47.7641 32.204H46.8241C45.9401 32.204 45.2201 32.924 45.2201 33.808C45.2201 34.693 45.9401 35.413 46.8251 35.413H47.4511C48.1879 35.4138 48.8943 35.7068 49.4153 36.2278C49.9363 36.7488 50.2293 37.4552 50.2301 38.192C50.2301 39.632 49.1301 40.819 47.7251 40.957V42.262C47.7251 42.4177 47.6633 42.567 47.5532 42.6771C47.4431 42.7872 47.2938 42.849 47.1381 42.849C46.9824 42.849 46.8331 42.7872 46.723 42.6771C46.6129 42.567 46.5511 42.4177 46.5511 42.262V40.971H46.5111C45.8575 40.9699 45.231 40.7098 44.7689 40.2475C44.3068 39.7852 44.0469 39.1586 44.0461 38.505C44.0461 38.3493 44.1079 38.2 44.218 38.0899C44.3281 37.9798 44.4774 37.918 44.6331 37.918C44.7888 37.918 44.9381 37.9798 45.0482 38.0899C45.1583 38.2 45.2201 38.3493 45.2201 38.505C45.2201 39.217 45.8001 39.796 46.5121 39.796H47.4511C48.3361 39.796 49.0561 39.076 49.0561 38.192C49.0561 37.307 48.3361 36.587 47.4511 36.587H46.8251C46.0881 36.5865 45.3815 36.2935 44.8603 35.7725C44.3391 35.2515 44.0459 34.545 44.0451 33.808C44.0451 32.368 45.1471 31.181 46.5511 31.043V29.738C46.5511 29.414 46.8141 29.15 47.1381 29.15ZM42.7931 25.315H28.9381V36.978H33.0481C33.3721 36.978 33.6351 37.241 33.6351 37.566V41.676H39.2021C37.8751 40.054 37.1581 38.083 37.1581 36C37.1581 34.888 37.3661 33.82 37.7481 32.83H31.4821C31.3264 32.83 31.1771 32.7682 31.067 32.6581C30.9569 32.548 30.8951 32.3987 30.8951 32.243C30.8951 32.0873 30.9569 31.938 31.067 31.8279C31.1771 31.7178 31.3264 31.656 31.4821 31.656H38.3021C38.7011 30.945 39.1951 30.287 39.7681 29.699H37.7451C37.5894 29.699 37.4401 29.6372 37.33 29.5271C37.2199 29.417 37.1581 29.2677 37.1581 29.112C37.1581 28.9563 37.2199 28.807 37.33 28.6969C37.4401 28.5868 37.5894 28.525 37.7451 28.525H40.8751C40.9511 28.525 41.0231 28.539 41.0891 28.565C41.6191 28.185 42.1891 27.855 42.7931 27.58V25.315ZM32.4611 38.153H29.7691L32.4611 40.845V38.153ZM35.8661 34.787C36.0218 34.787 36.1711 34.8488 36.2812 34.9589C36.3913 35.069 36.4531 35.2183 36.4531 35.374C36.4531 35.5297 36.3913 35.679 36.2812 35.7891C36.1711 35.8992 36.0218 35.961 35.8661 35.961H31.4821C31.3264 35.961 31.1771 35.8992 31.067 35.7891C30.9569 35.679 30.8951 35.5297 30.8951 35.374C30.8951 35.2183 30.9569 35.069 31.067 34.9589C31.1771 34.8488 31.3264 34.787 31.4821 34.787H35.8661ZM35.2401 28.524C35.3959 28.524 35.5454 28.5859 35.6555 28.6961C35.7657 28.8063 35.8276 28.9557 35.8276 29.1115C35.8276 29.2673 35.7657 29.4167 35.6555 29.5269C35.5454 29.6371 35.3959 29.699 35.2401 29.699H31.4821C31.3263 29.699 31.1769 29.6371 31.0667 29.5269C30.9565 29.4167 30.8946 29.2673 30.8946 29.1115C30.8946 28.9557 30.9565 28.8063 31.0667 28.6961C31.1769 28.5859 31.3263 28.524 31.4821 28.524H35.2401ZM44.6331 17.174H27.0991C26.5906 17.1745 26.103 17.3768 25.7435 17.7364C25.3839 18.0959 25.1816 18.5835 25.1811 19.092V21.01H46.5511V19.092C46.5506 18.5835 46.3483 18.0959 45.9888 17.7364C45.6292 17.3768 45.1416 17.1745 44.6331 17.174ZM37.1181 18.504C37.2739 18.504 37.4233 18.5659 37.5335 18.6761C37.6437 18.7863 37.7056 18.9357 37.7056 19.0915C37.7056 19.2473 37.6437 19.3967 37.5335 19.5069C37.4233 19.6171 37.2739 19.679 37.1181 19.679H34.6131C34.4574 19.679 34.3081 19.6172 34.198 19.5071C34.0879 19.397 34.0261 19.2477 34.0261 19.092C34.0261 18.9363 34.0879 18.787 34.198 18.6769C34.3081 18.5668 34.4574 18.505 34.6131 18.505L37.1181 18.504Z" fill="white"/>
</g>
<defs>
<linearGradient id="paint0_linear_3_241" x1="0" y1="72" x2="72" y2="72" gradientUnits="userSpaceOnUse">
<stop stop-color="#31D35C"/>
<stop offset="1" stop-color="#2BB7DA"/>
</linearGradient>
<clipPath id="clip0_3_241">
<rect width="72" height="72" fill="white"/>
</clipPath>
</defs>
</svg>
